<?xml version="1.0" encoding="UTF-8" standalone="no"?>
<!DOCTYPE svg PUBLIC "-//W3C//DTD SVG 1.1//EN" "http://www.w3.org/Graphics/SVG/1.1/DTD/svg11.dtd">
<svg version="1.1" xmlns="http://www.w3.org/2000/svg" xmlns:xlink="http://www.w3.org/1999/xlink" preserveAspectRatio="xMidYMid meet" viewBox="0 0 1000 1000" width="1000" height="1000"><defs><path d="M621.83 434.21C621.83 434.21 621.83 434.21 621.83 434.21C818.09 618.19 927.11 720.4 948.92 740.84C948.92 740.84 948.92 740.84 948.92 740.84C925.31 766.03 912.19 780.02 909.57 782.82C909.57 782.82 909.57 782.82 909.57 782.82C713.32 598.84 604.29 496.62 582.48 476.18C582.48 476.18 582.48 476.18 582.48 476.18C606.09 451 619.21 437 621.83 434.21Z" id="a2lr0KhlW"></path><path d="M614.43 409.76C614.43 409.76 614.43 409.76 614.43 409.76C810.68 593.75 919.71 695.96 941.52 716.4C941.52 716.4 941.52 716.4 941.52 716.4C917.91 741.59 904.79 755.58 902.17 758.38C902.17 758.38 902.17 758.38 902.17 758.38C705.91 574.39 596.89 472.18 575.08 451.74C575.08 451.74 575.08 451.74 575.08 451.74C598.69 426.55 611.81 412.56 614.43 409.76Z" id="jGUgw1JpH"></path><path d="M524.62 109.17C524.62 109.17 524.62 109.17 524.62 109.17C742.25 267.29 863.16 355.13 887.34 372.7C887.34 372.7 887.34 372.7 887.34 372.7C867.04 400.63 855.77 416.14 853.52 419.25C853.52 419.25 853.52 419.25 853.52 419.25C635.89 261.13 514.98 173.29 490.8 155.72C490.8 155.72 490.8 155.72 490.8 155.72C511.09 127.79 522.37 112.27 524.62 109.17Z" id="d7NNEa7aB"></path><path d="M514.23 85.84C514.23 85.84 514.23 85.84 514.23 85.84C731.86 243.95 852.77 331.8 876.95 349.37C876.95 349.37 876.95 349.37 876.95 349.37C856.66 377.3 845.38 392.81 843.13 395.91C843.13 395.91 843.13 395.91 843.13 395.91C625.5 237.8 504.59 149.95 480.41 132.39C480.41 132.39 480.41 132.39 480.41 132.39C500.71 104.46 511.98 88.94 514.23 85.84Z" id="dE8LRssF4"></path><path d="M381.88 300.52C381.88 300.52 381.88 300.52 381.88 300.52C446.31 561.69 482.1 706.79 489.26 735.81C489.26 735.81 489.26 735.81 489.26 735.81C455.74 744.08 437.12 748.67 433.4 749.59C433.4 749.59 433.4 749.59 433.4 749.59C368.97 488.41 333.17 343.32 326.01 314.3C326.01 314.3 326.01 314.3 326.01 314.3C359.53 306.03 378.15 301.44 381.88 300.52Z" id="e4a4Uj8qn"></path><path d="M388.98 275.99C388.98 275.99 388.98 275.99 388.98 275.99C453.41 537.16 489.2 682.26 496.36 711.28C496.36 711.28 496.36 711.28 496.36 711.28C462.84 719.55 444.22 724.14 440.5 725.06C440.5 725.06 440.5 725.06 440.5 725.06C376.07 463.88 340.27 318.79 333.11 289.77C333.11 289.77 333.11 289.77 333.11 289.77C366.63 281.5 385.25 276.9 388.98 275.99Z" id="c3f8TdDkfS"></path><path d="M291.01 723.28C291.01 723.28 291.01 723.28 291.01 723.28C425.51 956.25 500.24 1085.68 515.18 1111.56C515.18 1111.56 515.18 1111.56 515.18 1111.56C485.28 1128.82 468.67 1138.41 465.35 1140.33C465.35 1140.33 465.35 1140.33 465.35 1140.33C330.85 907.36 256.13 777.94 241.18 752.05C241.18 752.05 241.18 752.05 241.18 752.05C271.08 734.79 287.69 725.2 291.01 723.28Z" id="bhXzVew1j"></path><path d="M292.77 697.75C292.77 697.75 292.77 697.75 292.77 697.75C427.27 930.71 501.99 1060.14 516.94 1086.02C516.94 1086.02 516.94 1086.02 516.94 1086.02C487.04 1103.28 470.43 1112.87 467.11 1114.79C467.11 1114.79 467.11 1114.79 467.11 1114.79C332.61 881.83 257.88 752.4 242.94 726.52C242.94 726.52 242.94 726.52 242.94 726.52C272.84 709.25 289.45 699.66 292.77 697.75Z" id="aaLiViQMYA"></path></defs><g><g><g><use xlink:href="#a2lr0KhlW" opacity="1" fill="#73f9d9" fill-opacity="1"></use><g><use xlink:href="#a2lr0KhlW" opacity="1" fill-opacity="0" stroke="#000000" stroke-width="1" stroke-opacity="0"></use></g></g><g><use xlink:href="#jGUgw1JpH" opacity="1" fill="#e8355a" fill-opacity="1"></use><g><use xlink:href="#jGUgw1JpH" opacity="1" fill-opacity="0" stroke="#000000" stroke-width="1" stroke-opacity="0"></use></g></g><g><use xlink:href="#d7NNEa7aB" opacity="1" fill="#73f9d9" fill-opacity="1"></use><g><use xlink:href="#d7NNEa7aB" opacity="1" fill-opacity="0" stroke="#000000" stroke-width="1" stroke-opacity="0"></use></g></g><g><use xlink:href="#dE8LRssF4" opacity="1" fill="#e8355a" fill-opacity="1"></use><g><use xlink:href="#dE8LRssF4" opacity="1" fill-opacity="0" stroke="#000000" stroke-width="1" stroke-opacity="0"></use></g></g><g><use xlink:href="#e4a4Uj8qn" opacity="1" fill="#73f9d9" fill-opacity="1"></use><g><use xlink:href="#e4a4Uj8qn" opacity="1" fill-opacity="0" stroke="#000000" stroke-width="1" stroke-opacity="0"></use></g></g><g><use xlink:href="#c3f8TdDkfS" opacity="1" fill="#e8355a" fill-opacity="1"></use><g><use xlink:href="#c3f8TdDkfS" opacity="1" fill-opacity="0" stroke="#000000" stroke-width="1" stroke-opacity="0"></use></g></g><g><use xlink:href="#bhXzVew1j" opacity="1" fill="#73f9d9" fill-opacity="1"></use><g><use xlink:href="#bhXzVew1j" opacity="1" fill-opacity="0" stroke="#000000" stroke-width="1" stroke-opacity="0"></use></g></g><g><use xlink:href="#aaLiViQMYA" opacity="1" fill="#e8355a" fill-opacity="1"></use><g><use xlink:href="#aaLiViQMYA" opacity="1" fill-opacity="0" stroke="#000000" stroke-width="1" stroke-opacity="0"></use></g></g></g></g></svg>